<svg fill="#ffffff" role="img" viewBox="0 0 512 512" xmlns="http://www.w3.org/2000/svg">
<g>
	<g>
		<path d="M381.625,102.114c-13.193-13.195-30.734-20.46-49.391-20.46c-18.658,0-36.199,7.266-49.392,20.459l-14.958,14.958
			c-0.598,0.598-1.128,1.247-1.62,1.92l-26.463,18.494c-1.053,0.736-2.017,1.593-2.869,2.555L36.858,365.456
			c-1.602,1.804-2.785,3.94-3.466,6.257l-4.462,15.176c-1.691,5.754-0.106,11.972,4.135,16.213l12.63,12.63
			c-14.963,20.422-13.225,49.342,5.221,67.786L74.596,507.2c3.2,3.2,7.395,4.801,11.589,4.801c4.194,0,8.39-1.6,11.589-4.801
			c6.401-6.401,6.401-16.778,0-23.179L74.093,460.34c-5.569-5.569-7.032-13.699-4.423-20.632l10.968,10.968
			c3.118,3.119,7.306,4.801,11.591,4.801c1.543,0,3.098-0.219,4.621-0.665l15.176-4.461c2.315-0.681,4.452-1.865,6.257-3.467
			l225.418-200.075c0.962-0.853,1.819-1.816,2.555-2.869l18.492-26.462c0.668-0.49,1.317-1.017,1.92-1.622l14.958-14.958
			c13.194-13.193,20.459-30.735,20.459-49.392C402.085,132.847,394.818,115.306,381.625,102.114z M99.264,419.934l-2.326,0.684
			l-33.816-33.816l0.684-2.326L239.16,186.907l57.671,57.671L99.264,419.934z M321.191,222.581l-60.033-60.031l17.085-11.94
			l54.886,54.886L321.191,222.581z M358.448,177.719l-3.369,3.369l-52.426-52.426l3.369-3.369
			c7.002-7.002,16.31-10.858,26.213-10.858c9.902-0.001,19.211,3.855,26.213,10.858c7.002,7.002,10.858,16.31,10.858,26.213
			C369.306,161.407,365.449,170.717,358.448,177.719z"/>
	</g>
</g>
<g>
	<g>
		<path d="M450.089,33.649c-6.4-6.401-16.778-6.401-23.179,0l-28.273,28.273c-6.401,6.401-6.401,16.778,0,23.179
			c3.2,3.2,7.395,4.801,11.589,4.801s8.39-1.6,11.589-4.801l28.274-28.273C456.49,50.427,456.49,40.05,450.089,33.649z"/>
	</g>
</g>
<g>
	<g>
		<path d="M368.854,0c-9.052,0-16.39,7.338-16.39,16.39v39.985c0,9.052,7.338,16.39,16.39,16.39s16.39-7.338,16.39-16.39V16.39
			C385.244,7.338,377.906,0,368.854,0z"/>
	</g>
</g>
<g>
	<g>
		<path d="M467.348,98.495h-39.984c-9.052,0-16.39,7.338-16.39,16.39s7.338,16.39,16.39,16.39h39.984
			c9.052,0,16.39-7.338,16.39-16.39S476.399,98.495,467.348,98.495z"/>
	</g>
</g>
</svg>